<?xml version="1.0" encoding="UTF-8" standalone="no"?>
<!-- Created with Inkscape (http://www.inkscape.org/) -->

<svg
   xmlns:dc="http://purl.org/dc/elements/1.1/"
   xmlns:cc="http://creativecommons.org/ns#"
   xmlns:rdf="http://www.w3.org/1999/02/22-rdf-syntax-ns#"
   xmlns:svg="http://www.w3.org/2000/svg"
   xmlns="http://www.w3.org/2000/svg"
   xmlns:sodipodi="http://sodipodi.sourceforge.net/DTD/sodipodi-0.dtd"
   xmlns:inkscape="http://www.inkscape.org/namespaces/inkscape"
   width="111.91308mm"
   height="148.78101mm"
   viewBox="0 0 111.91308 148.78101"
   version="1.1"
   id="svg8"
   inkscape:version="0.92.4 (5da689c313, 2019-01-14)"
   sodipodi:docname="poplet-background-dark.svg">
  <defs
     id="defs2" />
  <sodipodi:namedview
     id="base"
     pagecolor="#ffffff"
     bordercolor="#666666"
     borderopacity="1.0"
     inkscape:pageopacity="0.0"
     inkscape:pageshadow="2"
     inkscape:zoom="1.4"
     inkscape:cx="160.8308"
     inkscape:cy="343.39243"
     inkscape:document-units="mm"
     inkscape:current-layer="layer2"
     showgrid="false"
     fit-margin-top="0"
     fit-margin-left="0"
     fit-margin-right="0"
     fit-margin-bottom="0"
     inkscape:window-width="1920"
     inkscape:window-height="1017"
     inkscape:window-x="1912"
     inkscape:window-y="-8"
     inkscape:window-maximized="1" />
  <metadata
     id="metadata5">
    <rdf:RDF>
      <cc:Work
         rdf:about="">
        <dc:format>image/svg+xml</dc:format>
        <dc:type
           rdf:resource="http://purl.org/dc/dcmitype/StillImage" />
        <dc:title></dc:title>
      </cc:Work>
    </rdf:RDF>
  </metadata>
  <g
     inkscape:groupmode="layer"
     id="layer2"
     inkscape:label="Layer 2">
    <rect
       style="opacity:1;fill:#333333;fill-opacity:1;stroke:#f9f9f9;stroke-width:0;stroke-linecap:square;stroke-linejoin:miter;stroke-miterlimit:3.20000005;stroke-dasharray:none;stroke-opacity:1;paint-order:normal"
       id="rect1155"
       width="116.98363"
       height="166.12053"
       x="-1.8898809"
       y="-3.5434022"
       ry="2.1042523" />
  </g>
  <g
     inkscape:label="Layer 1"
     inkscape:groupmode="layer"
     id="layer1"
     transform="translate(-5.6696405,-92.136909)">
    <rect
       style="opacity:1;fill:#1a1a1a;fill-opacity:1;stroke:#f9f9f9;stroke-width:0;stroke-linecap:square;stroke-linejoin:miter;stroke-miterlimit:3.20000005;stroke-dasharray:none;stroke-opacity:1;paint-order:normal"
       id="rect10"
       width="37.797619"
       height="51.404762"
       x="5.6696429"
       y="92.136909"
       ry="2.1042523" />
    <rect
       style="opacity:1;fill:#1a1a1a;fill-opacity:1;stroke:#f9f9f9;stroke-width:0;stroke-linecap:square;stroke-linejoin:miter;stroke-miterlimit:3.20000005;stroke-dasharray:none;stroke-opacity:1;paint-order:normal"
       id="rect10-1"
       width="16.816961"
       height="51.404762"
       x="5.669641"
       y="147.22694"
       ry="2.1042523" />
    <rect
       style="opacity:1;fill:#1a1a1a;fill-opacity:1;stroke:#f9f9f9;stroke-width:0;stroke-linecap:square;stroke-linejoin:miter;stroke-miterlimit:3.20000005;stroke-dasharray:none;stroke-opacity:1;paint-order:normal"
       id="rect10-14"
       width="37.797619"
       height="62.095543"
       x="46.726589"
       y="92.158058"
       ry="2.5418792" />
    <rect
       style="opacity:1;fill:#1a1a1a;fill-opacity:1;stroke:#f9f9f9;stroke-width:0;stroke-linecap:square;stroke-linejoin:miter;stroke-miterlimit:3.20000005;stroke-dasharray:none;stroke-opacity:1;paint-order:normal"
       id="rect10-1-3"
       width="16.816961"
       height="29.488661"
       x="26.298277"
       y="147.22723"
       ry="1.2071174" />
    <rect
       style="opacity:1;fill:#1a1a1a;fill-opacity:1;stroke:#f9f9f9;stroke-width:0;stroke-linecap:square;stroke-linejoin:miter;stroke-miterlimit:3.20000005;stroke-dasharray:none;stroke-opacity:1;paint-order:normal"
       id="rect10-1-3-9"
       width="16.816961"
       height="29.488661"
       x="26.336555"
       y="179.7578"
       ry="1.2071174" />
    <rect
       style="opacity:1;fill:#1a1a1a;fill-opacity:1;stroke:#f9f9f9;stroke-width:0;stroke-linecap:square;stroke-linejoin:miter;stroke-miterlimit:3.20000005;stroke-dasharray:none;stroke-opacity:1;paint-order:normal"
       id="rect10-2"
       width="28.977724"
       height="51.404762"
       x="46.914997"
       y="156.90627"
       ry="2.1042523" />
    <rect
       style="opacity:1;fill:#1a1a1a;fill-opacity:1;stroke:#f9f9f9;stroke-width:0;stroke-linecap:square;stroke-linejoin:miter;stroke-miterlimit:3.20000005;stroke-dasharray:none;stroke-opacity:1;paint-order:normal"
       id="rect10-0"
       width="37.797619"
       height="51.404762"
       x="78.959442"
       y="189.51315"
       ry="2.1042523" />
    <rect
       style="opacity:1;fill:#1a1a1a;fill-opacity:1;stroke:#f9f9f9;stroke-width:0;stroke-linecap:square;stroke-linejoin:miter;stroke-miterlimit:3.20000005;stroke-dasharray:none;stroke-opacity:1;paint-order:normal"
       id="rect10-1-3-7"
       width="16.816961"
       height="29.488661"
       x="79.02626"
       y="157.02913"
       ry="1.2071174" />
    <rect
       style="opacity:1;fill:#1a1a1a;fill-opacity:1;stroke:#f9f9f9;stroke-width:0;stroke-linecap:square;stroke-linejoin:miter;stroke-miterlimit:3.20000005;stroke-dasharray:none;stroke-opacity:1;paint-order:normal"
       id="rect10-1-3-8"
       width="10.402493"
       height="12.383411"
       x="99.033867"
       y="173.87251"
       ry="0.50691456" />
    <rect
       style="opacity:1;fill:#1a1a1a;fill-opacity:1;stroke:#f9f9f9;stroke-width:0;stroke-linecap:square;stroke-linejoin:miter;stroke-miterlimit:3.20000005;stroke-dasharray:none;stroke-opacity:1;paint-order:normal"
       id="rect10-1-3-8-7"
       width="10.402493"
       height="14.655202"
       x="99.167503"
       y="157.43542"
       ry="0.59991026" />
    <rect
       style="opacity:1;fill:#1a1a1a;fill-opacity:1;stroke:#f9f9f9;stroke-width:0;stroke-linecap:square;stroke-linejoin:miter;stroke-miterlimit:3.20000005;stroke-dasharray:none;stroke-opacity:1;paint-order:normal"
       id="rect10-1-34"
       width="16.816961"
       height="7.5725603"
       x="6.1577082"
       y="201.27301"
       ry="0.30998251" />
    <rect
       style="opacity:1;fill:#1a1a1a;fill-opacity:1;stroke:#f9f9f9;stroke-width:0;stroke-linecap:square;stroke-linejoin:miter;stroke-miterlimit:3.20000005;stroke-dasharray:none;stroke-opacity:1;paint-order:normal"
       id="rect10-1-3-9-8"
       width="69.736328"
       height="27.885042"
       x="5.89044"
       y="212.76559"
       ry="1.1414734" />
    <rect
       style="opacity:1;fill:#1a1a1a;fill-opacity:1;stroke:#f9f9f9;stroke-width:0;stroke-linecap:square;stroke-linejoin:miter;stroke-miterlimit:3.20000005;stroke-dasharray:none;stroke-opacity:1;paint-order:normal"
       id="rect10-1-3-6"
       width="16.816961"
       height="34.433147"
       x="87.27401"
       y="119.62215"
       ry="1.4095199" />
    <rect
       style="opacity:1;fill:#1a1a1a;fill-opacity:1;stroke:#f9f9f9;stroke-width:0;stroke-linecap:square;stroke-linejoin:miter;stroke-miterlimit:3.20000005;stroke-dasharray:none;stroke-opacity:1;paint-order:normal"
       id="rect10-1-3-8-7-5"
       width="10.402493"
       height="14.655202"
       x="87.541283"
       y="102.29425"
       ry="0.59991026" />
    <rect
       style="opacity:1;fill:#1a1a1a;fill-opacity:1;stroke:#f9f9f9;stroke-width:0;stroke-linecap:square;stroke-linejoin:miter;stroke-miterlimit:3.20000005;stroke-dasharray:none;stroke-opacity:1;paint-order:normal"
       id="rect10-1-3-7-6"
       width="16.816961"
       height="24.677809"
       x="100.58961"
       y="92.271645"
       ry="1.0101854" />
    <rect
       style="opacity:1;fill:#1a1a1a;fill-opacity:1;stroke:#f9f9f9;stroke-width:0;stroke-linecap:square;stroke-linejoin:miter;stroke-miterlimit:3.20000005;stroke-dasharray:none;stroke-opacity:1;paint-order:normal"
       id="rect10-1-3-8-7-5-1"
       width="10.402493"
       height="7.4389253"
       x="87.541283"
       y="92.476768"
       ry="0.30451217" />
    <rect
       style="opacity:1;fill:#1a1a1a;fill-opacity:1;stroke:#f9f9f9;stroke-width:0;stroke-linecap:square;stroke-linejoin:miter;stroke-miterlimit:3.20000005;stroke-dasharray:none;stroke-opacity:1;paint-order:normal"
       id="rect10-1-3-0"
       width="10.131289"
       height="17.060625"
       x="106.54783"
       y="136.7274"
       ry="0.69837618" />
    <rect
       style="opacity:1;fill:#1a1a1a;fill-opacity:1;stroke:#f9f9f9;stroke-width:0;stroke-linecap:square;stroke-linejoin:miter;stroke-miterlimit:3.20000005;stroke-dasharray:none;stroke-opacity:1;paint-order:normal"
       id="rect10-1-3-8-7-7"
       width="10.402493"
       height="14.655202"
       x="106.4749"
       y="119.59528"
       ry="0.59991026" />
    <rect
       style="opacity:1;fill:#1a1a1a;fill-opacity:1;stroke:#f9f9f9;stroke-width:0;stroke-linecap:square;stroke-linejoin:miter;stroke-miterlimit:3.20000005;stroke-dasharray:none;stroke-opacity:1;paint-order:normal"
       id="rect10-1-3-8-6"
       width="4.9234676"
       height="28.954126"
       x="112.65925"
       y="157.30716"
       ry="1.1852362" />
    <path
       style="opacity:1;fill:#ffaaaa;fill-opacity:1;stroke:#f9f9f9;stroke-width:0;stroke-linecap:square;stroke-linejoin:miter;stroke-miterlimit:3.20000005;stroke-dasharray:none;stroke-opacity:1;paint-order:normal"
       d="M 5.6216138,193.70171 C 3.7193544,193.13215 1.8146217,191.34373 0.95057722,189.3159 0.3725349,187.9593 0.25805633,172.69151 0.25805633,96.955712 V 6.2207996 L 1.3277501,4.3175364 C 1.9160817,3.2707417 3.2539123,1.932911 4.300707,1.3445795 L 6.2039703,0.27488569 H 71.594155 136.98434 l 1.66975,1.13642161 c 0.91836,0.6250319 2.14522,1.7781204 2.72634,2.5624188 l 1.0566,1.4259973 V 97.160298 188.92087 l -1.21273,1.70036 c -0.66699,0.93519 -2.14434,2.12344 -3.28299,2.64056 -1.9855,0.9017 -4.70719,0.93888 -66.467499,0.90788 -35.418474,-0.0178 -65.0519624,-0.22836 -65.8521972,-0.46796 z"
       id="path1112"
       inkscape:connector-curvature="0"
       transform="matrix(0.26458333,0,0,0.26458333,5.6696405,92.136909)" />
    <path
       style="opacity:1;fill:#ffe680;fill-opacity:1;stroke:#f9f9f9;stroke-width:0;stroke-linecap:square;stroke-linejoin:miter;stroke-miterlimit:3.20000005;stroke-dasharray:none;stroke-opacity:1;paint-order:normal"
       d="m 278.78466,355.11392 -1.23973,-1.23973 v -52.82638 -52.82639 l 1.23973,-1.23973 1.23974,-1.23974 h 28.77099 c 15.82405,0 29.13892,0.14119 29.5886,0.31375 2.33707,0.89682 2.29547,-0.10314 2.29547,55.18081 v 52.00919 l -1.30758,1.55397 -1.30759,1.55399 H 309.04434 280.0244 Z"
       id="path1114"
       inkscape:connector-curvature="0"
       transform="matrix(0.26458333,0,0,0.26458333,5.6696405,92.136909)" />
    <path
       style="opacity:1;fill:#e5ff80;fill-opacity:1;stroke:#f9f9f9;stroke-width:0;stroke-linecap:square;stroke-linejoin:miter;stroke-miterlimit:3.20000005;stroke-dasharray:none;stroke-opacity:1;paint-order:normal"
       d="m 159.98381,437.67367 c -0.90536,-0.55201 -2.09775,-1.7444 -2.64976,-2.64977 -0.99172,-1.62655 -1.00365,-2.73257 -1.00365,-93.06492 0,-90.33233 0.0119,-91.43836 1.00365,-93.06492 0.55201,-0.90536 1.7444,-2.09963 2.64976,-2.65393 1.61931,-0.99142 2.45468,-1.00574 51.3062,-0.87927 l 49.66008,0.12856 1.93618,2.07579 c 1.69629,1.81859 1.97663,2.47569 2.26254,5.3033 0.1795,1.77513 0.25782,43.00226 0.17405,91.61586 -0.15183,88.1173 -0.15548,88.39376 -1.18976,90.15439 -0.5706,0.97133 -1.79746,2.27822 -2.72634,2.90419 l -1.68889,1.13814 -49.04397,-0.002 c -48.04732,-0.002 -49.07743,-0.0222 -50.69009,-1.0054 z"
       id="path1116"
       inkscape:connector-curvature="0"
       transform="matrix(0.26458333,0,0,0.26458333,5.6696405,92.136909)" />
    <path
       style="opacity:1;fill:#80e5ff;fill-opacity:1;stroke:#f9f9f9;stroke-width:0;stroke-linecap:square;stroke-linejoin:miter;stroke-miterlimit:3.20000005;stroke-dasharray:none;stroke-opacity:1;paint-order:normal"
       d="m 161.12485,233.67566 c -2.44506,-1.12847 -3.98384,-2.72743 -5.02666,-5.22324 -0.69752,-1.66939 -0.78052,-13.63752 -0.77063,-111.10989 0.0107,-104.88962 0.048,-109.3202324 0.93829,-111.2801622 1.1244,-2.4753777 3.49669,-4.5618495 6.01818,-5.29310992 1.30243,-0.3777173 21.22839,-0.49696137 65.5479,-0.39226208 l 63.67663,0.15042803 2.04837,1.35563287 c 1.23381,0.8165497 2.4744,2.2356967 3.11971,3.56873 l 1.07134,2.2130967 V 117.32663 c 0,76.25272 -0.16366,110.09491 -0.53721,111.08358 -0.76374,2.02142 -2.91966,4.1738 -5.27117,5.26251 -1.93255,0.89475 -4.77354,0.93537 -65.40737,0.93537 -60.55961,0 -63.47719,-0.0416 -65.40738,-0.93243 z"
       id="path1118"
       inkscape:connector-curvature="0"
       transform="matrix(0.26458333,0,0,0.26458333,5.6696405,92.136909)" />
    <path
       style="opacity:1;fill:#80b3ff;fill-opacity:1;stroke:#f9f9f9;stroke-width:0;stroke-linecap:square;stroke-linejoin:miter;stroke-miterlimit:3.20000005;stroke-dasharray:none;stroke-opacity:1;paint-order:normal"
       d="m 310.7537,93.168463 c -0.82415,-0.480019 -0.88389,-2.318598 -0.88389,-27.204721 0,-23.871778 0.0844,-26.722279 0.79892,-26.996484 1.33293,-0.51149 36.255,-0.334821 37.0818,0.187596 0.65429,0.413417 0.77668,4.003508 0.89738,26.324289 0.12248,22.649767 0.043,25.993304 -0.64299,27.040222 l -0.78275,1.194631 -17.7923,-0.01536 c -11.14239,-0.0096 -18.12264,-0.207773 -18.67617,-0.530174 z"
       id="path1120"
       inkscape:connector-curvature="0"
       transform="matrix(0.26458333,0,0,0.26458333,5.6696405,92.136909)" />
    <path
       style="opacity:1;fill:#afe9c6;fill-opacity:1;stroke:#f9f9f9;stroke-width:0;stroke-linecap:square;stroke-linejoin:miter;stroke-miterlimit:3.20000005;stroke-dasharray:none;stroke-opacity:1;paint-order:normal"
       d="m 360.90832,92.993217 c -0.68028,-0.376741 -1.40298,-1.10736 -1.60599,-1.623598 -0.20302,-0.516238 -0.3851,-20.55222 -0.40462,-44.524405 l -0.0355,-43.5857867 1.23973,-1.2397326 1.23974,-1.23973274 h 29.22934 29.22933 l 1.0982,1.16897434 1.09819,1.1689744 v 44.0583103 44.05831 l -1.23973,1.23973 -1.23973,1.239735 -28.68604,-0.0179 c -23.17632,-0.01445 -28.9236,-0.149457 -29.92292,-0.702879 z"
       id="path1122"
       inkscape:connector-curvature="0"
       transform="matrix(0.26458333,0,0,0.26458333,5.6696405,92.136909)" />
    <path
       style="opacity:1;fill:#afdde9;fill-opacity:1;stroke:#f9f9f9;stroke-width:0;stroke-linecap:square;stroke-linejoin:miter;stroke-miterlimit:3.20000005;stroke-dasharray:none;stroke-opacity:1;paint-order:normal"
       d="m 5.3090782,401.75513 c -0.6943375,-0.2807 -1.7955334,-1.0081 -2.4471018,-1.61645 -2.77015375,-2.58638 -2.60392007,3.47523 -2.60392007,-94.95049 v -91.11666 l 1.13642157,-1.66975 c 0.6250319,-0.91836 1.7781204,-2.14521 2.5624189,-2.72634 1.4042239,-1.04046 1.8297456,-1.05659 27.8684262,-1.05659 25.918863,0 26.470048,0.0206 27.837219,1.04136 0.767135,0.57275 1.863403,1.66901 2.436149,2.43615 l 1.041361,1.39479 v 91.8498 91.84981 l -1.041361,1.39479 c -0.572746,0.76714 -1.668822,1.8634 -2.435715,2.43615 -1.361428,1.01677 -2.00482,1.04375 -27.242913,1.14257 -16.481932,0.0645 -26.306015,-0.0837 -27.1109848,-0.40914 z"
       id="path1124"
       inkscape:connector-curvature="0"
       transform="matrix(0.26458333,0,0,0.26458333,5.6696405,92.136909)" />
    <path
       style="opacity:1;fill:#87aade;fill-opacity:1;stroke:#f9f9f9;stroke-width:0;stroke-linecap:square;stroke-linejoin:miter;stroke-miterlimit:3.20000005;stroke-dasharray:none;stroke-opacity:1;paint-order:normal"
       d="m 79.709465,318.26421 -1.417124,-1.21888 -0.133222,-52.33084 c -0.145664,-57.21844 -0.266585,-54.73095 2.715674,-55.8648 0.753957,-0.28666 12.650507,-0.48338 29.231477,-0.48338 h 27.9601 l 1.55398,1.30759 1.55399,1.30759 -0.0161,52.86184 c -0.0124,40.75761 -0.15696,53.04534 -0.63135,53.66323 -1.48852,1.93874 -2.08337,1.97653 -31.11103,1.97653 H 81.12659 Z"
       id="path1126"
       inkscape:connector-curvature="0"
       transform="matrix(0.26458333,0,0,0.26458333,5.6696405,92.136909)" />
    <path
       style="opacity:1;fill:#afafe9;fill-opacity:1;stroke:#f9f9f9;stroke-width:0;stroke-linecap:square;stroke-linejoin:miter;stroke-miterlimit:3.20000005;stroke-dasharray:none;stroke-opacity:1;paint-order:normal"
       d="m 310.33604,232.14375 -1.47638,-1.47638 v -61.69701 -61.69701 l 1.47638,-1.47638 1.47637,-1.47637 h 28.48117 28.48117 l 1.48345,1.54841 1.48346,1.54842 v 61.62757 61.62756 l -1.64947,1.47379 -1.64947,1.47377 h -28.31515 -28.31516 z"
       id="path1128"
       inkscape:connector-curvature="0"
       transform="matrix(0.26458333,0,0,0.26458333,5.6696405,92.136909)" />
    <path
       style="opacity:1;fill:#b7c8c4;fill-opacity:1;stroke:#f9f9f9;stroke-width:0;stroke-linecap:square;stroke-linejoin:miter;stroke-miterlimit:3.20000005;stroke-dasharray:none;stroke-opacity:1;paint-order:normal"
       d="m 381.60841,157.89189 c -0.34077,-0.63674 -0.52284,-9.93146 -0.52284,-26.69076 0,-24.26969 0.0519,-25.76076 0.92365,-26.54971 0.82215,-0.74404 2.85162,-0.8359 18.46849,-0.8359 11.12822,0 17.90213,0.19122 18.52178,0.52285 0.94675,0.50668 0.97695,1.33884 0.97695,26.92056 0,19.85813 -0.15015,26.54787 -0.60609,27.00381 -0.44912,0.44912 -5.34986,0.6061 -18.92259,0.6061 -17.59206,0 -18.33718,-0.0386 -18.83935,-0.97695 z"
       id="path1130"
       inkscape:connector-curvature="0"
       transform="matrix(0.26458333,0,0,0.26458333,5.6696405,92.136909)" />
    <path
       style="opacity:1;fill:#6f8a91;fill-opacity:1;stroke:#f9f9f9;stroke-width:0;stroke-linecap:square;stroke-linejoin:miter;stroke-miterlimit:3.20000005;stroke-dasharray:none;stroke-opacity:1;paint-order:normal"
       d="m 382.19673,232.00388 c -0.87552,-0.87552 -0.87552,-61.55191 0,-62.42743 0.44849,-0.44849 5.23762,-0.60609 18.41752,-0.60609 17.09271,0 17.83252,0.0394 18.33427,0.97695 0.72158,1.34829 0.72158,60.33743 0,61.68571 -0.50175,0.93753 -1.24156,0.97695 -18.33427,0.97695 -13.1799,0 -17.96903,-0.1576 -18.41752,-0.60609 z"
       id="path1132"
       inkscape:connector-curvature="0"
       transform="matrix(0.26458333,0,0,0.26458333,5.6696405,92.136909)" />
    <path
       style="opacity:1;fill:#ffaacc;fill-opacity:1;stroke:#f9f9f9;stroke-width:0;stroke-linecap:square;stroke-linejoin:miter;stroke-miterlimit:3.20000005;stroke-dasharray:none;stroke-opacity:1;paint-order:normal"
       d="m 309.98796,15.300905 0.13439,-13.7633286 18.62849,-0.1325608 c 13.3293,-0.094852 18.82496,0.030499 19.31917,0.4406511 0.5502,0.4566298 0.69067,3.1203424 0.69067,13.0969653 0,6.888066 -0.13795,12.88327 -0.30657,13.322678 -0.2721,0.709072 -2.45994,0.798923 -19.45356,0.798923 h -19.14697 z"
       id="path1134"
       inkscape:connector-curvature="0"
       transform="matrix(0.26458333,0,0,0.26458333,5.6696405,92.136909)" />
    <path
       style="opacity:1;fill:#c8b7be;fill-opacity:1;stroke:#f9f9f9;stroke-width:0;stroke-linecap:square;stroke-linejoin:miter;stroke-miterlimit:3.20000005;stroke-dasharray:none;stroke-opacity:1;paint-order:normal"
       d="m 281.83808,561.43509 c -1.60808,-0.66954 -3.76465,-3.22844 -4.3031,-5.10591 -0.67874,-2.36665 -0.67112,-179.87628 0.008,-182.32026 0.27353,-0.98459 1.30763,-2.57558 2.29802,-3.53553 l 1.8007,-1.74536 66.26326,-0.12756 c 65.41789,-0.12593 66.28427,-0.11471 67.90939,0.87927 0.90536,0.55375 2.09775,1.74757 2.64976,2.65294 0.99172,1.62655 1.00364,2.73258 1.00364,93.06491 0,90.33235 -0.0119,91.43837 -1.00364,93.06492 -0.55201,0.90537 -1.7444,2.09776 -2.64976,2.64977 -1.62096,0.9883 -2.6496,1.00318 -67.30603,0.97352 -36.11296,-0.0166 -66.11449,-0.21939 -66.67007,-0.45071 z"
       id="path1136"
       inkscape:connector-curvature="0"
       transform="matrix(0.26458333,0,0,0.26458333,5.6696405,92.136909)" />
    <path
       style="opacity:1;fill:#ffaacc;fill-opacity:1;stroke:#f9f9f9;stroke-width:0;stroke-linecap:square;stroke-linejoin:miter;stroke-miterlimit:3.20000005;stroke-dasharray:none;stroke-opacity:1;paint-order:normal"
       d="m 353.53757,354.71216 c -0.13319,-0.34724 -0.18288,-10.63186 -0.11042,-22.8547 l 0.13176,-22.22336 18.68782,-0.13337 c 17.12027,-0.12219 18.74078,-0.0611 19.31917,0.72788 0.81791,1.11576 0.91994,42.62175 0.1085,44.13795 -0.50246,0.93885 -1.25147,0.97695 -19.20875,0.97695 -14.48285,0 -18.74038,-0.14201 -18.92808,-0.63135 z"
       id="path1138"
       inkscape:connector-curvature="0"
       transform="matrix(0.26458333,0,0,0.26458333,5.6696405,92.136909)" />
    <path
       style="opacity:1;fill:#afe9dd;fill-opacity:1;stroke:#f9f9f9;stroke-width:0;stroke-linecap:square;stroke-linejoin:miter;stroke-miterlimit:3.20000005;stroke-dasharray:none;stroke-opacity:1;paint-order:normal"
       d="m 354.04309,301.17408 c -0.13295,-0.34724 -0.18264,-12.56378 -0.11042,-27.14785 l 0.13132,-26.51651 18.68782,-0.13337 c 17.12026,-0.12219 18.74078,-0.0611 19.31917,0.72788 0.79197,1.08037 0.92242,50.34446 0.13877,52.40562 l -0.49258,1.29557 H 373.001 c -14.50731,0 -18.77054,-0.14198 -18.95791,-0.63134 z"
       id="path1140"
       inkscape:connector-curvature="0"
       transform="matrix(0.26458333,0,0,0.26458333,5.6696405,92.136909)" />
    <path
       style="opacity:1;fill:#e9ddaf;fill-opacity:1;stroke:#f9f9f9;stroke-width:0;stroke-linecap:square;stroke-linejoin:miter;stroke-miterlimit:3.20000005;stroke-dasharray:none;stroke-opacity:1;paint-order:normal"
       d="m 79.784611,440.97689 -1.239732,-1.23973 v -52.96792 -52.96793 l 1.168974,-1.09819 1.168974,-1.0982 h 29.047563 29.04756 l 1.22446,1.30338 1.22446,1.30338 v 52.69909 52.69909 l -1.22446,1.30338 -1.22446,1.30338 h -28.9768 -28.976806 z"
       id="path1142"
       inkscape:connector-curvature="0"
       transform="matrix(0.26458333,0,0,0.26458333,5.6696405,92.136909)" />
    <path
       style="opacity:1;fill:#ffd5d5;fill-opacity:1;stroke:#f9f9f9;stroke-width:0;stroke-linecap:square;stroke-linejoin:miter;stroke-miterlimit:3.20000005;stroke-dasharray:none;stroke-opacity:1;paint-order:normal"
       d="M 2.3664033,559.74057 1.2682089,558.5716 v -50.00823 -50.00822 l 1.1689744,-1.0982 1.1689744,-1.09819 H 132.52753 c 83.12832,0 129.24951,0.17562 129.84519,0.49441 0.5081,0.27193 1.17502,1.21499 1.48203,2.09568 0.7226,2.07288 0.79139,96.35606 0.0721,98.86401 -0.26735,0.93217 -0.89238,2.00304 -1.38896,2.37971 -0.75434,0.57218 -22.14002,0.6875 -129.9881,0.70092 l -129.0852122,0.0161 z"
       id="path1144"
       inkscape:connector-curvature="0"
       transform="matrix(0.26458333,0,0,0.26458333,5.6696405,92.136909)" />
    <path
       style="opacity:1;fill:#b3b3b3;fill-opacity:1;stroke:#f9f9f9;stroke-width:0;stroke-linecap:square;stroke-linejoin:miter;stroke-miterlimit:3.20000005;stroke-dasharray:none;stroke-opacity:1;paint-order:normal"
       d="m 2.2783614,426.80797 v -13.89342 l 31.4409976,0.1301 31.440998,0.13009 0.142139,12.62691 c 0.07818,6.94479 0.01702,13.13829 -0.135896,13.76332 l -0.278024,1.13643 H 33.583468 2.2783614 Z"
       id="path1146"
       inkscape:connector-curvature="0"
       transform="matrix(0.26458333,0,0,0.26458333,5.6696405,92.136909)" />
    <path
       style="opacity:1;fill:#ffccaa;fill-opacity:1;stroke:#f9f9f9;stroke-width:0;stroke-linecap:square;stroke-linejoin:miter;stroke-miterlimit:3.20000005;stroke-dasharray:none;stroke-opacity:1;paint-order:normal"
       d="m 405.92235,354.17453 -1.0982,-1.16897 V 300.97702 248.9485 l 1.16898,-1.0982 c 1.07656,-1.01138 1.68849,-1.09819 7.74064,-1.09819 6.21623,0 6.63106,0.0632 7.66986,1.16897 l 1.09819,1.16898 v 52.02853 52.02853 l -1.16897,1.09819 c -1.07657,1.01138 -1.6885,1.0982 -7.74064,1.0982 -6.21624,0 -6.63107,-0.0632 -7.66986,-1.16898 z"
       id="path1148"
       inkscape:connector-curvature="0"
       transform="matrix(0.26458333,0,0,0.26458333,5.6696405,92.136909)" />
    <path
       style="opacity:1;fill:#afe9c6;fill-opacity:1;stroke:#f9f9f9;stroke-width:0;stroke-linecap:square;stroke-linejoin:miter;stroke-miterlimit:3.20000005;stroke-dasharray:none;stroke-opacity:1;paint-order:normal"
       d="m 175.90721,438.19363 -15.52222,-0.27015 -1.65038,-1.65048 -1.65037,-1.65048 -0.31904,-21.58303 c -0.41155,-27.84187 -0.41155,-114.31915 0,-142.16101 l 0.31904,-21.58303 1.65111,-1.65048 1.65111,-1.65048 50.08397,-0.13355 50.08396,-0.13356 1.48641,1.39625 c 3.06858,2.88245 2.87955,-3.26124 2.85129,92.67256 -0.0143,48.41417 -0.20068,89.60007 -0.41426,91.52423 -0.36545,3.29251 -0.51642,3.61214 -2.5644,5.42957 l -2.17609,1.9311 -34.15395,-0.10865 c -18.78468,-0.0598 -41.13896,-0.23023 -49.67618,-0.37881 z"
       id="path1150"
       inkscape:connector-curvature="0"
       transform="matrix(0.26458333,0,0,0.26458333,5.6696405,92.136909)" />
  </g>
</svg>
